<svg width="32" height="32" viewBox="0 0 32 32" fill="none" xmlns="http://www.w3.org/2000/svg">
    <path d="M21.5867 2.66667H10.4133C5.56 2.66667 2.66667 5.56 2.66667 10.4133V21.5733C2.66667 26.44 5.56 29.3333 10.4133 29.3333H21.5733C26.4267 29.3333 29.32 26.44 29.32 21.5867V10.4133C29.3333 5.56 26.44 2.66667 21.5867 2.66667ZM21.3333 17H17V21.3333C17 21.88 16.5467 22.3333 16 22.3333C15.4533 22.3333 15 21.88 15 21.3333V17H10.6667C10.12 17 9.66667 16.5467 9.66667 16C9.66667 15.4533 10.12 15 10.6667 15H15V10.6667C15 10.12 15.4533 9.66667 16 9.66667C16.5467 9.66667 17 10.12 17 10.6667V15H21.3333C21.88 15 22.3333 15.4533 22.3333 16C22.3333 16.5467 21.88 17 21.3333 17Z" fill="#135058"/>
</svg>
