<svg xmlns="http://www.w3.org/2000/svg" width="32" height="32" viewBox="0 0 32 32" fill="none">
    <path d="M21.5867 2.66666H10.4133C5.56 2.66666 2.66666 5.56 2.66666 10.4133V21.5733C2.66666 26.44 5.56 29.3333 10.4133 29.3333H21.5733C26.4267 29.3333 29.32 26.44 29.32 21.5867V10.4133C29.3333 5.56 26.44 2.66666 21.5867 2.66666ZM20.48 19.0667C20.8667 19.4533 20.8667 20.0933 20.48 20.48C20.28 20.68 20.0267 20.7733 19.7733 20.7733C19.52 20.7733 19.2667 20.68 19.0667 20.48L16 17.4133L12.9333 20.48C12.7333 20.68 12.48 20.7733 12.2267 20.7733C11.9733 20.7733 11.72 20.68 11.52 20.48C11.334 20.2918 11.2297 20.0379 11.2297 19.7733C11.2297 19.5088 11.334 19.2548 11.52 19.0667L14.5867 16L11.52 12.9333C11.334 12.7451 11.2297 12.4912 11.2297 12.2267C11.2297 11.9621 11.334 11.7082 11.52 11.52C11.9067 11.1333 12.5467 11.1333 12.9333 11.52L16 14.5867L19.0667 11.52C19.4533 11.1333 20.0933 11.1333 20.48 11.52C20.8667 11.9067 20.8667 12.5467 20.48 12.9333L17.4133 16L20.48 19.0667Z" fill="#135058"/>
</svg>