<svg width="24" height="24" viewBox="0 0 24 24" fill="none" xmlns="http://www.w3.org/2000/svg">
    <path d="M21.07 4.98C19.46 4.82 17.85 4.7 16.23 4.61V4.6L16.01 3.3C15.86 2.38 15.64 1 13.3 1H10.68C8.35001 1 8.13 2.32 7.97 3.29L7.76 4.57C6.83001 4.63 5.9 4.69 4.97 4.78L2.93001 4.98C2.51001 5.02 2.21 5.39 2.25 5.8C2.29 6.21 2.65 6.51 3.07 6.47L5.11001 6.27C10.35 5.75 15.63 5.95 20.93 6.48H21.01C21.39 6.48 21.72 6.19 21.76 5.8C21.7751 5.60024 21.7113 5.40253 21.5823 5.24925C21.4533 5.09596 21.2694 4.99931 21.07 4.98ZM19.23 7.89C18.99 7.64 18.66 7.5 18.32 7.5H5.68C5.34 7.5 5.00001 7.64 4.77 7.89C4.54 8.14 4.41 8.48 4.43 8.83L5.05001 19.09C5.16001 20.61 5.3 22.51 8.79 22.51H15.21C18.7 22.51 18.84 20.62 18.95 19.09L19.57 8.84C19.59 8.48 19.46 8.14 19.23 7.89ZM13.66 17.5H10.33C9.92 17.5 9.58 17.16 9.58 16.75C9.58 16.34 9.92 16 10.33 16H13.66C14.07 16 14.41 16.34 14.41 16.75C14.41 17.16 14.07 17.5 13.66 17.5ZM14.5 13.5H9.5C9.09 13.5 8.75 13.16 8.75 12.75C8.75 12.34 9.09 12 9.5 12H14.5C14.91 12 15.25 12.34 15.25 12.75C15.25 13.16 14.91 13.5 14.5 13.5Z" fill="#EF3833"/>
</svg>
