<svg width="32" height="32" viewBox="0 0 32 32" fill="none" xmlns="http://www.w3.org/2000/svg">
    <path d="M21.5867 2.66667H10.4133C5.55999 2.66667 2.66666 5.56 2.66666 10.4133V21.5867C2.66666 26.44 5.55999 29.3333 10.4133 29.3333H21.5867C26.44 29.3333 29.3333 26.44 29.3333 21.5867V10.4133C29.3333 5.56 26.44 2.66667 21.5867 2.66667ZM13.2933 19.8667L10.2933 22.8667C10.0933 23.0667 9.83999 23.16 9.58666 23.16C9.33332 23.16 9.06666 23.0667 8.87999 22.8667L7.87999 21.8667C7.47999 21.48 7.47999 20.84 7.87999 20.4533C8.26666 20.0667 8.89332 20.0667 9.29332 20.4533L9.58666 20.7467L11.88 18.4533C12.2667 18.0667 12.8933 18.0667 13.2933 18.4533C13.68 18.84 13.68 19.48 13.2933 19.8667ZM13.2933 10.5333L10.2933 13.5333C10.0933 13.7333 9.83999 13.8267 9.58666 13.8267C9.33332 13.8267 9.06666 13.7333 8.87999 13.5333L7.87999 12.5333C7.47999 12.1467 7.47999 11.5067 7.87999 11.12C8.26666 10.7333 8.89332 10.7333 9.29332 11.12L9.58666 11.4133L11.88 9.12C12.2667 8.73334 12.8933 8.73334 13.2933 9.12C13.68 9.50667 13.68 10.1467 13.2933 10.5333ZM23.4133 22.16H16.4133C15.8667 22.16 15.4133 21.7067 15.4133 21.16C15.4133 20.6133 15.8667 20.16 16.4133 20.16H23.4133C23.6785 20.16 23.9329 20.2654 24.1204 20.4529C24.308 20.6404 24.4133 20.8948 24.4133 21.16C24.4133 21.4252 24.308 21.6796 24.1204 21.8671C23.9329 22.0546 23.6785 22.16 23.4133 22.16ZM23.4133 12.8267H16.4133C15.8667 12.8267 15.4133 12.3733 15.4133 11.8267C15.4133 11.28 15.8667 10.8267 16.4133 10.8267H23.4133C23.6785 10.8267 23.9329 10.932 24.1204 11.1196C24.308 11.3071 24.4133 11.5615 24.4133 11.8267C24.4133 12.0919 24.308 12.3462 24.1204 12.5338C23.9329 12.7213 23.6785 12.8267 23.4133 12.8267Z" fill="#135058"/>
</svg>
